<svg width="13" height="25" viewBox="0 0 13 25" fill="none" xmlns="http://www.w3.org/2000/svg">
<g opacity="0.05">
<path opacity="0.05" d="M2.22322 22.0337C2.16557 21.9976 2.1168 21.9489 2.0805 21.8914C2.0442 21.8339 2.02131 21.769 2.01352 21.7014L1.99095 21.7433C1.99095 21.7433 1.77643 22.2659 2.15225 22.4998C2.19418 22.5256 2.2345 22.553 2.2716 22.5788C2.33935 22.5659 2.41354 22.5563 2.4829 22.5385C2.78936 22.4675 2.59258 22.2724 2.22322 22.0337Z" fill="black"/>
<path opacity="0.05" d="M5.17327 21.8853C5.23616 21.8272 5.23294 21.6772 5.19585 21.4852C5.10211 21.6576 5.05696 21.8521 5.06523 22.0482C5.08829 21.9863 5.12525 21.9306 5.17327 21.8853Z" fill="black"/>
<path opacity="0.05" d="M4.82003 12.23C4.73386 12.4592 4.67959 12.6991 4.65875 12.943C4.70299 12.7766 4.76237 12.6146 4.83615 12.4591C4.83615 12.4591 4.83938 12.3655 4.82003 12.23Z" fill="black"/>
<path opacity="0.05" d="M10.0638 11.2107C10.0791 11.1407 10.0861 11.0693 10.0848 10.9977C10.0558 11.1429 10.0364 11.2784 10.0219 11.3961C10.0348 11.3348 10.0477 11.2736 10.0638 11.2107Z" fill="black"/>
<path opacity="0.05" d="M4.76522 19.1303C4.81017 18.9914 4.82985 18.8455 4.82329 18.6996C4.75084 18.8718 4.71303 19.0565 4.71201 19.2432C4.72517 19.2036 4.74303 19.1657 4.76522 19.1303Z" fill="black"/>
<path opacity="0.05" d="M5.24585 22.7885C5.12597 23.1782 5.03698 23.5768 4.97971 23.9805L2.63288 24.2531C2.41999 23.9444 2.24355 23.612 2.10706 23.2627C2.08201 23.2069 2.05993 23.1499 2.04093 23.0918C1.9006 23.1563 1.84415 23.3014 2.02964 23.7369C2.16577 24.0859 2.34225 24.4177 2.55546 24.7257L4.90068 24.4531C4.90068 24.4531 5.07649 23.2305 5.30875 23.0014C5.42327 22.8772 5.35069 22.8192 5.24585 22.7885Z" fill="black"/>
<path opacity="0.05" d="M2.14577 19.3029C2.14577 19.3029 2.16512 20.6433 2.35868 20.7207C2.45707 20.4997 2.51998 20.29 2.43449 20.2545C2.24094 20.1771 2.22158 18.8384 2.22158 18.8384C2.22158 18.8384 1.83285 17.2464 1.93124 16.8189C2.02963 16.3915 1.61994 15.3673 1.61994 15.3673L1.48446 14.1447C1.0694 13.451 0.917688 12.6312 1.05702 11.8349V9.94933C1.05702 9.94933 0.513463 6.30081 0.436041 4.4572C0.38604 3.27651 0.400557 1.66515 0.416687 0.658663C0.416687 0.478011 0.416687 0.316715 0.416687 0.174774H0.35055C0.35055 0.174774 0.340873 0.547368 0.331195 1.11191C0.315066 2.11678 0.300549 3.72975 0.35055 4.91044C0.427972 6.75406 0.971543 10.4026 0.971543 10.4026V12.2849C0.829223 13.0886 0.984612 13.9166 1.40865 14.614L1.54414 15.8366C1.54414 15.8366 1.95221 16.8641 1.85382 17.2883C1.75543 17.7125 2.14577 19.3029 2.14577 19.3029Z" fill="black"/>
<path opacity="0.05" d="M9.0541 23.7289C8.86342 23.4527 8.73669 23.1376 8.68312 22.8063C8.44278 23.0224 8.7186 23.8628 8.97668 24.195C9.23475 24.5273 11.2671 24.7579 11.6558 24.116V23.7466C11.13 24.2676 9.31217 24.0595 9.0541 23.7289Z" fill="black"/>
<path opacity="0.05" d="M12.0042 21.5353C11.8979 21.7215 11.8073 21.9163 11.7332 22.1175V22.3901C11.7768 22.2901 11.8397 22.1579 11.9268 22.0014C11.989 21.8479 12.0182 21.683 12.0123 21.5175L12.0042 21.5353Z" fill="black"/>
<path opacity="0.05" d="M9.17343 21.8417C9.24763 21.6924 9.31175 21.5383 9.36537 21.3804C9.36537 21.3804 9.04279 21.4578 8.51052 20.8368C8.12987 20.3852 8.10889 19.532 8.16212 18.9739C8.06534 19.3045 7.9089 20.682 8.4331 21.303C8.77666 21.7111 9.03311 21.8159 9.17343 21.8417Z" fill="black"/>
<path opacity="0.05" d="M8.16211 17.5383C8.1957 17.9207 8.20863 18.3046 8.20083 18.6884C8.21373 18.6126 8.22824 18.5513 8.23953 18.5077C8.33793 18.1851 8.23953 17.0722 8.23953 17.0722C8.23953 17.0722 8.25889 16.2947 8.10404 16.0431C7.9492 15.7915 7.62015 14.3543 7.62015 14.3543C7.62015 14.3543 7.62015 13.8704 7.34918 13.6172C7.0782 13.364 6.90238 12.3752 6.90238 12.3752C6.74294 12.1282 6.67398 11.8335 6.70722 11.5413C6.7669 11.0574 6.38463 10.5316 6.38463 10.5316L5.72492 8.43476L5.09587 6.8718L4.74585 7.78312C4.74585 7.78312 4.74585 7.89764 4.73456 8.07829L5.01844 7.33794L5.63944 8.90897L6.29913 11.0058C6.29913 11.0058 6.68625 11.53 6.62173 12.0139C6.59255 12.3042 6.66371 12.5956 6.82335 12.8398C6.82335 12.8398 6.99755 13.8285 7.26853 14.0817C7.53951 14.335 7.54112 14.8189 7.54112 14.8189C7.54112 14.8189 7.86371 16.2544 8.02501 16.5076C8.1863 16.7609 8.16211 17.5383 8.16211 17.5383Z" fill="black"/>
</g>
</svg>
